<?xml version="1.0" encoding="utf-8"?>
<!-- Generator: Adobe Illustrator 16.0.0, SVG Export Plug-In . SVG Version: 6.00 Build 0)  -->
<!DOCTYPE svg PUBLIC "-//W3C//DTD SVG 1.1//EN" "http://www.w3.org/Graphics/SVG/1.1/DTD/svg11.dtd">
<svg version="1.1" id="Layer_1" xmlns="http://www.w3.org/2000/svg" xmlns:xlink="http://www.w3.org/1999/xlink" x="0px" y="0px"
	 width="24px" height="24px" viewBox="0 0 24 24" enable-background="new 0 0 24 24" xml:space="preserve">
<g>
	<path d="M12,2c5.514,0,10,4.486,10,10s-4.486,10-10,10S2,17.514,2,12S6.486,2,12,2 M12,0C5.373,0,0,5.373,0,12s5.373,12,12,12
		s12-5.373,12-12S18.627,0,12,0L12,0z"/>
	<g>
		<path d="M9.477,13.7c0.189,0.168,0.396,0.316,0.613,0.443l0.182-0.312c-0.197-0.114-0.383-0.25-0.555-0.401L9.477,13.7z"/>
		<path d="M10.777,14.458c0.238,0.08,0.484,0.139,0.736,0.171l0.047-0.357c-0.229-0.029-0.451-0.082-0.668-0.155L10.777,14.458z"/>
		<path d="M13.559,13.935l0.16,0.322c0.227-0.112,0.441-0.249,0.639-0.404l-0.223-0.284C13.955,13.709,13.762,13.832,13.559,13.935z
			"/>
		<path d="M12.244,14.292l0.023,0.36c0.252-0.017,0.504-0.059,0.746-0.125L12.92,14.18C12.699,14.239,12.473,14.277,12.244,14.292z"
			/>
		<path d="M19.377,15.81c-0.773-2.035-2.445-2.987-2.771-3.156c0.434-0.105,0.662-0.34,0.662-0.34
			c-0.721-0.261-0.842-0.922-0.842-0.922c0.842,0.2,1.744-0.621,1.744-0.621c-1.623-0.161-1.785-1.183-1.785-1.183
			c0.461,0.12,0.982-0.2,0.982-0.2c-1.08-0.246-1.213-1.539-1.225-1.678h0.002c-0.26-2.685-1.742-4.767-4.105-4.708
			c-4.068,0.1-4.176,4.714-4.176,4.714s-0.08,1.411-1.223,1.672c0,0,0.521,0.32,0.982,0.2c0,0-0.16,1.021-1.783,1.183
			c0,0,0.902,0.821,1.742,0.621c0,0-0.119,0.661-0.84,0.922c0,0,0.225,0.232,0.656,0.338C7.078,12.817,5.4,13.77,4.625,15.81
			c-0.174,0.457-0.303,0.969-0.359,1.539c0.217,0.263,0.447,0.515,0.689,0.754c0.258,0.256,0.531,0.496,0.816,0.724
			C7.48,20.184,9.639,20.998,11.992,21c0.006,0,0.014,0,0.02,0c0.166,0,0.33-0.005,0.492-0.013c0.006,0,0.012,0,0.02-0.001
			c2.152-0.11,4.123-0.902,5.705-2.16c0.285-0.228,0.559-0.468,0.816-0.723c0.242-0.24,0.473-0.492,0.689-0.755
			C19.678,16.778,19.549,16.267,19.377,15.81z M14.84,9.756c0.035-0.037,0.07-0.072,0.102-0.108c0,0.007,0,0.014-0.002,0.021
			c-0.035,0.038-0.07,0.076-0.109,0.116C14.834,9.775,14.836,9.766,14.84,9.756z M10.258,8.508c1.375-0.578,2.316-1.266,2.959-1.908
			c0.129,0.515,0.293,1.201,0.336,1.246C13.615,7.906,14.02,7.9,14.49,7.869c-0.164,1.677-0.869,3.285-1.947,3.702
			c-0.168,0.062-0.344,0.095-0.527,0.095c-1.148,0-1.977-1.271-2.336-2.813C9.977,8.625,10.258,8.508,10.258,8.508z M13.738,12.363
			c-0.453,0.485-1.074,0.766-1.738,0.766c-0.668,0-1.289-0.269-1.744-0.735c0.074-0.155,0.158-0.363,0.199-0.565
			c0.434,0.358,0.947,0.569,1.533,0.569c0.227,0,0.441-0.035,0.646-0.098c0.002,0,0.004-0.001,0.006-0.001
			c0.043-0.013,0.082-0.027,0.123-0.042c0.045-0.016,0.088-0.033,0.131-0.051c0.01-0.005,0.02-0.009,0.029-0.013
			c0.221-0.099,0.43-0.23,0.623-0.394C13.584,11.998,13.664,12.203,13.738,12.363z M17.338,17.998
			c0.021-0.744,0.029-1.696-0.031-2.546l-0.719,0.05c0.07,1.029,0.041,2.243,0.008,3.004c-1.338,0.819-2.912,1.293-4.596,1.293
			c-1.682,0-3.252-0.472-4.59-1.289c-0.035-0.748-0.07-1.941-0.004-2.985l-0.719-0.047c-0.057,0.856-0.045,1.791-0.02,2.523
			c-0.566-0.43-1.076-0.926-1.523-1.478c0.6-2.224,2.412-3.148,2.598-3.238l1.051-0.386c0.055,0.084,0.111,0.167,0.172,0.247
			l0.287-0.219c-0.039-0.051-0.074-0.104-0.111-0.156l0.369-0.136c0.598,0.766,1.506,1.214,2.49,1.214
			c0.967,0,1.863-0.451,2.459-1.222l0.412,0.151c-0.074,0.109-0.154,0.216-0.24,0.317l0.273,0.234
			c0.115-0.134,0.221-0.276,0.316-0.425l1.039,0.379c0.189,0.093,1.998,1.019,2.596,3.238C18.41,17.073,17.9,17.569,17.338,17.998z"
			/>
	</g>
</g>
</svg>
