<svg xmlns="http://www.w3.org/2000/svg" fill="currentColor" viewBox="0 0 32 32"><path d="M11.146 30.795c-1.864-0.036-2.575-2.19-2.65-2.436l-6.361-20.845c-0.374-1.225-0.289-2.21 0.255-2.929 0.351-0.464 1.050-1.012 2.39-0.986 0.49 0.009 0.875 0.096 0.917 0.105l21.178 4.933c1.361 0.317 2.198 0.959 2.487 1.908 0.458 1.504-0.817 2.931-0.965 3.088l-14.818 15.899c-0.795 0.853-1.614 1.278-2.433 1.262zM4.675 5.786c-0.379-0.007-0.502 0.096-0.525 0.13-0.107 0.151-0.13 0.219 0.094 0.956l6.361 20.844c0.142 0.445 0.378 0.859 0.583 0.875 0.003 0 0.256-0.002 0.777-0.561l14.818-15.897c0.274-0.301 0.525-0.79 0.468-0.941-0.041-0.107-0.211-0.247-0.878-0.403l-21.178-4.934s-0.265-0.062-0.52-0.067z"></path><path d="M8.767 29.101c-0.685 0.254-1.4 0.303-1.962 0.121-1.769-0.577-1.821-2.841-1.821-3.097l0.002-20.295 2.084 0.467 0.008 19.872c0.005 0.466 0.126 0.911 0.41 0.961 0.002 0.001 0.148 0.047 0.571-0.147zM10.035 25.869l17.135-9.915c0.348-0.207 0.755-0.516 0.721-0.763-0.005-0.037-0.086-0.26-0.457-0.517l1.437-1.633c0.812 0.619 1.223 1.34 1.223 2.151 0 1.569-1.634 2.56-1.82 2.668l-17.577 10.098zM25.441 13.549l-16.84-9.798s-0.42-0.268-0.662-0.347c-0.36-0.117-0.536 0.002-0.57 0.024-0.101 0.067-0.133 0.121-0.175 0.615l-2.169-0.404c0.118-0.902 0.471-1.571 1.051-1.993 0.47-0.341 1.297-0.66 2.569-0.246 0.465 0.152 0.807 0.346 0.844 0.368l17.518 10.105z"></path></svg>
