<?xml version="1.0" encoding="utf-8"?>
<!-- Generator: Adobe Illustrator 15.0.2, SVG Export Plug-In . SVG Version: 6.00 Build 0)  -->
<!DOCTYPE svg PUBLIC "-//W3C//DTD SVG 1.1//EN" "http://www.w3.org/Graphics/SVG/1.1/DTD/svg11.dtd">
<svg version="1.1"
	 id="svg2" sodipodi:docname="backdrop-logo.svg" inkscape:version="0.48.4 r9939" xmlns:inkscape="http://www.inkscape.org/namespaces/inkscape" xmlns:sodipodi="http://sodipodi.sourceforge.net/DTD/sodipodi-0.dtd" xmlns:rdf="http://www.w3.org/1999/02/22-rdf-syntax-ns#" xmlns:svg="http://www.w3.org/2000/svg" xmlns:cc="http://creativecommons.org/ns#" xmlns:dc="http://purl.org/dc/elements/1.1/"
	 xmlns="http://www.w3.org/2000/svg" xmlns:xlink="http://www.w3.org/1999/xlink" x="0px" y="0px" width="451.333px" height="124px"
	 viewBox="-21.833 -21 451.333 124" enable-background="new -21.833 -21 451.333 124" xml:space="preserve">
<sodipodi:namedview  id="namedview4" borderopacity="1" inkscape:window-width="1237" bordercolor="#666666" pagecolor="#ffffff" objecttolerance="10" gridtolerance="10" guidetolerance="10" inkscape:pageopacity="0" inkscape:pageshadow="2" inkscape:window-height="712" showgrid="false" inkscape:zoom="1.84375" fit-margin-left="0" inkscape:cx="311.33865" inkscape:cy="66.336025" inkscape:window-x="1648" inkscape:window-y="125" inkscape:window-maximized="0" inkscape:current-layer="svg2" fit-margin-top="0" fit-margin-right="0" fit-margin-bottom="0">
	</sodipodi:namedview>
<g id="g3840">
	<path id="rect3792" inkscape:connector-curvature="0" fill="#100F0D" d="M335.07,0.473h74v74h-74V0.473z M272.523,76.375V93h-4.18
		V26.785h3.61l0.38,5.7h0.285c2.217-1.773,4.623-3.356,7.221-4.75c2.659-1.393,5.414-2.09,8.264-2.09
		c6.08,0,10.641,2.122,13.681,6.365c3.04,4.18,4.56,9.817,4.56,16.91c0,3.863-0.538,7.314-1.615,10.355
		c-1.076,3.039-2.564,5.637-4.465,7.789c-1.836,2.091-3.99,3.705-6.459,4.846c-2.407,1.076-4.94,1.615-7.601,1.615
		c-2.153,0-4.37-0.476-6.649-1.426c-2.281-1.013-4.624-2.406-7.03-4.18L272.523,76.375 M272.524,63.93
		c2.659,2.154,5.13,3.674,7.409,4.561c2.281,0.887,4.307,1.33,6.08,1.33c2.28,0,4.402-0.507,6.365-1.521
		c1.963-1.013,3.643-2.438,5.035-4.274c1.394-1.837,2.471-4.021,3.23-6.556c0.822-2.597,1.234-5.446,1.234-8.55
		c0-2.787-0.285-5.383-0.855-7.79c-0.506-2.407-1.329-4.465-2.469-6.175c-1.141-1.773-2.629-3.135-4.465-4.085
		c-1.838-1.014-4.055-1.52-6.65-1.52c-2.28,0-4.655,0.665-7.125,1.995c-2.407,1.267-5.004,3.104-7.791,5.51L272.524,63.93
		 M220.312,49.68c0-3.8,0.538-7.188,1.615-10.165c1.14-3.04,2.628-5.573,4.465-7.6c1.899-2.027,4.085-3.578,6.555-4.655
		c2.47-1.076,5.067-1.615,7.79-1.615c2.724,0,5.32,0.539,7.79,1.615c2.533,1.077,4.718,2.628,6.556,4.655
		c1.899,2.027,3.388,4.56,4.465,7.6c1.14,2.977,1.709,6.365,1.709,10.165c0,3.801-0.569,7.188-1.709,10.165
		c-1.077,2.913-2.565,5.384-4.465,7.41c-1.838,2.026-4.022,3.579-6.556,4.655c-2.47,1.076-5.066,1.615-7.79,1.615
		c-2.723,0-5.32-0.539-7.79-1.615s-4.655-2.629-6.555-4.655c-1.837-2.026-3.325-4.497-4.465-7.41
		C220.85,56.868,220.312,53.48,220.312,49.68 M224.682,49.68c0,2.977,0.412,5.7,1.234,8.17c0.824,2.471,1.932,4.592,3.326,6.365
		c1.456,1.773,3.166,3.167,5.129,4.18c1.964,0.95,4.086,1.426,6.365,1.426c2.28,0,4.402-0.476,6.365-1.426
		c2.027-1.013,3.736-2.406,5.13-4.18c1.456-1.773,2.597-3.895,3.42-6.365c0.823-2.47,1.235-5.193,1.235-8.17
		c0-3.04-0.412-5.795-1.235-8.265c-0.823-2.47-1.964-4.592-3.42-6.365c-1.394-1.836-3.104-3.229-5.13-4.18
		c-1.963-1.014-4.085-1.52-6.365-1.52c-2.279,0-4.401,0.506-6.365,1.52c-1.963,0.95-3.673,2.343-5.129,4.18
		c-1.395,1.773-2.502,3.896-3.326,6.365C225.094,43.885,224.682,46.64,224.682,49.68 M201.588,26.785h3.61l0.38,8.455h0.285
		c1.52-2.85,3.356-5.162,5.51-6.935c2.217-1.773,4.687-2.66,7.41-2.66c0.887,0,1.678,0.063,2.375,0.19
		c0.696,0.127,1.425,0.38,2.185,0.76l-0.95,3.8c-0.76-0.317-1.425-0.507-1.994-0.57c-0.57-0.127-1.299-0.19-2.186-0.19
		c-2.027,0-4.18,0.887-6.46,2.66c-2.217,1.71-4.212,4.718-5.985,9.025v31.065h-4.18V26.785 M152.72,49.68
		c0-3.673,0.539-6.998,1.615-9.975s2.533-5.51,4.37-7.6c1.9-2.09,4.054-3.673,6.46-4.75c2.47-1.14,5.066-1.71,7.79-1.71
		c2.787,0,5.193,0.507,7.22,1.52c2.09,0.95,4.275,2.312,6.555,4.085l-0.19-8.36V4.08h4.18v68.305h-3.61l-0.38-5.89h-0.285
		c-1.837,1.837-4.021,3.483-6.555,4.94c-2.47,1.393-5.225,2.09-8.265,2.09c-5.764,0-10.355-2.027-13.775-6.08
		C154.43,63.328,152.72,57.406,152.72,49.68 M157.186,49.68c0,3.041,0.316,5.795,0.95,8.266c0.697,2.47,1.678,4.592,2.945,6.365
		c1.267,1.709,2.818,3.071,4.655,4.084c1.9,0.95,4.053,1.426,6.46,1.426c2.533,0,4.94-0.634,7.22-1.9
		c2.343-1.33,4.718-3.198,7.125-5.605V35.24c-2.407-2.153-4.687-3.673-6.84-4.56c-2.09-0.887-4.243-1.33-6.46-1.33
		c-2.28,0-4.401,0.538-6.365,1.615c-1.963,1.014-3.673,2.438-5.13,4.275c-1.393,1.773-2.501,3.926-3.325,6.46
		C157.597,44.17,157.185,46.83,157.186,49.68 M120.173,4.08h4.18v50.35h0.19l22.515-27.645h4.845l-14.82,18.05l17.29,27.55h-4.655
		L134.613,47.97l-10.26,11.97v12.445h-4.18V4.08 M80.397,49.68c0-3.8,0.57-7.188,1.71-10.165c1.14-3.04,2.66-5.573,4.56-7.6
		c1.9-2.027,4.085-3.578,6.555-4.655c2.533-1.076,5.193-1.615,7.98-1.615c3.167,0,5.795,0.57,7.885,1.71
		c2.153,1.14,3.99,2.438,5.51,3.895l-2.47,2.945c-1.457-1.393-3.071-2.533-4.845-3.42c-1.773-0.95-3.769-1.425-5.985-1.425
		c-2.344,0-4.528,0.506-6.555,1.52c-1.963,0.95-3.705,2.343-5.225,4.18c-1.457,1.773-2.628,3.895-3.515,6.365
		c-0.823,2.47-1.235,5.225-1.235,8.265c0,2.977,0.38,5.7,1.14,8.17c0.823,2.471,1.932,4.592,3.325,6.365
		c1.457,1.773,3.199,3.167,5.225,4.18c2.09,0.95,4.37,1.426,6.84,1.426c2.406,0,4.623-0.507,6.65-1.521
		c2.09-1.013,3.927-2.248,5.51-3.705l2.185,2.851c-1.963,1.773-4.148,3.229-6.555,4.369c-2.407,1.141-5.067,1.711-7.98,1.711
		c-2.977,0-5.731-0.539-8.265-1.615c-2.47-1.076-4.655-2.629-6.555-4.655c-1.836-2.026-3.293-4.497-4.37-7.41
		C80.904,56.868,80.397,53.48,80.397,49.68 M41.018,60.984c0-5.003,2.375-8.834,7.125-11.494s12.192-4.56,22.325-5.7
		c0.063-1.71-0.063-3.42-0.38-5.13c-0.253-1.773-0.792-3.325-1.615-4.655c-0.76-1.393-1.868-2.501-3.325-3.325
		c-1.394-0.887-3.199-1.33-5.415-1.33c-3.104,0-5.922,0.602-8.455,1.805c-2.534,1.203-4.56,2.375-6.08,3.515l-1.9-3.135
		c0.823-0.57,1.805-1.204,2.945-1.9c1.203-0.696,2.501-1.33,3.895-1.9c1.457-0.57,3.04-1.045,4.75-1.425
		c1.71-0.443,3.483-0.665,5.32-0.665c2.724,0,5.003,0.475,6.84,1.425c1.836,0.887,3.325,2.122,4.465,3.705
		c1.14,1.583,1.932,3.452,2.375,5.605c0.507,2.09,0.76,4.37,0.76,6.84v29.165h-3.515l-0.475-5.89h-0.19
		c-2.343,1.837-4.877,3.483-7.6,4.94c-2.66,1.393-5.51,2.09-8.55,2.09c-1.837,0-3.547-0.254-5.13-0.76
		c-1.583-0.508-3.008-1.268-4.275-2.281c-1.203-1.013-2.153-2.311-2.85-3.895C41.367,65.007,41.018,63.139,41.018,60.984
		 M45.388,60.795c0,3.293,0.95,5.637,2.85,7.03s4.148,2.09,6.745,2.09c2.66,0,5.193-0.634,7.6-1.899
		c2.407-1.268,5.035-3.104,7.885-5.511V47.02c-4.687,0.57-8.645,1.268-11.875,2.09c-3.167,0.824-5.732,1.806-7.695,2.945
		c-1.963,1.141-3.389,2.438-4.275,3.896C45.8,57.406,45.388,59.021,45.388,60.795 M0,4.08h4.18v19.76l-0.19,8.93
		c2.343-1.963,4.845-3.642,7.505-5.035c2.66-1.393,5.415-2.09,8.265-2.09c6.08,0,10.64,2.122,13.68,6.365
		C36.48,36.19,38,41.827,38,48.92c0,3.863-0.539,7.314-1.615,10.355c-1.077,3.039-2.565,5.637-4.465,7.789
		c-1.836,2.091-3.99,3.705-6.46,4.846c-2.407,1.076-4.94,1.615-7.6,1.615c-2.217,0-4.528-0.476-6.935-1.426
		c-2.343-1.013-4.591-2.343-6.745-3.99H3.99l-0.475,4.275H0V4.08 M4.18,63.93c2.533,2.154,4.972,3.674,7.315,4.561
		s4.401,1.33,6.175,1.33c2.28,0,4.402-0.507,6.365-1.521c1.963-1.013,3.642-2.438,5.035-4.274c1.394-1.837,2.47-4.021,3.23-6.556
		c0.824-2.597,1.235-5.446,1.235-8.55c0-2.787-0.285-5.383-0.855-7.79c-0.507-2.406-1.33-4.465-2.47-6.175
		c-1.14-1.773-2.628-3.135-4.465-4.085c-1.837-1.014-4.054-1.52-6.65-1.52c-2.28,0-4.655,0.665-7.125,1.995
		c-2.47,1.267-5.067,3.104-7.79,5.51V63.93"/>
</g>
<path id="path3806" inkscape:connector-curvature="0" sodipodi:nodetypes="cccc" fill="#FFFFFF" fill-opacity="0.9412" d="
	M372.07,37.473v37l37-37H372.07z"/>
</svg>
