<svg width="1200" height="300" version="1.1" viewBox="0 0 1200 300" xmlns="http://www.w3.org/2000/svg"><rect width="1200" height="300" fill="#d7dde0" fill-opacity=".7"/><g fill="#ffffff" fill-opacity=".32"><path d="m10.404 0c-5.7636 0-10.404 3.7303-10.404 8.3643v217.69c222.69-41.875 379.38 34.902 601.56 73.95h588.04c5.7636 0 10.404-3.7303 10.404-8.3643v-283.27c0-4.634-4.6407-8.3643-10.404-8.3643z"/><path d="m136.34 135.09c73.645 3.1247 143.92 18.332 210.96 37.549 2.0999.57286 4.1248 1.1978 6.2246 1.7707 128.24 37.288 257.01 82.545 398.45 108.17 149.09 26.977 302.53 21.248 447.95-7.7076v-274.87h-1199.9v147.49c44.247-10.207 90.444-14.322 136.34-12.395z"/><path d="m1199.9 0h-1199.9v70.983c46.722-10.884 95.769-14.322 144.14-9.9991 70.196 6.3015 135.37 24.842 197.46 46.662 1.9499.67703 3.8248 1.354 5.7746 2.0311 118.79 42.236 239.76 89.002 375.2 116.24 157.87 31.768 323.08 25.519 477.42-8.645v-217.27z"/><path d="m341.15 44.944c109.34 47.235 222.51 95.304 351.88 124.31 156.44 35.101 323.45 31.664 478.4-2.7602 9.5994-2.1352 19.049-4.3746 28.573-6.7181v-159.78h-983.94c41.997 11.093 81.52 26.352 119.77 42.704 1.7999.7291 3.5248 1.5103 5.3247 2.2394z"/><path d="m1199.9 0h-826.45c88.569 44.683 182.61 85.669 290.08 112.59 143.84 36.038 299.98 38.903 446.22 10.989 30.598-5.8328 60.821-13.124 90.219-21.717v-101.87z"/><path d="m1048.1 80.618c35.398-5.5203 70.196-13.176 103.94-22.81 16.274-4.635 32.248-9.7908 47.922-15.363v-42.444h-717.41c47.172 21.717 97.269 40.725 151.57 55.932 131.17 36.82 276.51 46.194 413.97 24.685z"/><path d="m986.41 37.705c56.471-6.5619 111.67-19.321 162.59-37.705h-542.22c118.27 36.976 251.68 52.599 379.63 37.705z"/></g></svg>