<svg xmlns="http://www.w3.org/2000/svg" width="40" height="40" viewBox="0 0 40 40" fill="none">
  <path d="M33.75 6.5625H6.25C5.66984 6.5625 5.11344 6.79297 4.7032 7.2032C4.29297 7.61344 4.0625 8.16984 4.0625 8.75V31.25C4.0625 31.8302 4.29297 32.3866 4.7032 32.7968C5.11344 33.207 5.66984 33.4375 6.25 33.4375H33.75C34.3302 33.4375 34.8866 33.207 35.2968 32.7968C35.707 32.3866 35.9375 31.8302 35.9375 31.25V8.75C35.9375 8.16984 35.707 7.61344 35.2968 7.2032C34.8866 6.79297 34.3302 6.5625 33.75 6.5625ZM6.25 8.4375H33.75C33.8329 8.4375 33.9124 8.47042 33.971 8.52903C34.0296 8.58763 34.0625 8.66712 34.0625 8.75V14.0625H5.9375V8.75C5.9375 8.66712 5.97042 8.58763 6.02903 8.52903C6.08763 8.47042 6.16712 8.4375 6.25 8.4375ZM33.75 31.5625H6.25C6.16712 31.5625 6.08763 31.5296 6.02903 31.471C5.97042 31.4124 5.9375 31.3329 5.9375 31.25V15.9375H34.0625V31.25C34.0625 31.3329 34.0296 31.4124 33.971 31.471C33.9124 31.5296 33.8329 31.5625 33.75 31.5625Z" fill="#B79CF6"/>
</svg>