<svg xmlns="http://www.w3.org/2000/svg" width="32" height="32" viewBox="0 0 32 32" fill="none">
  <path d="M30 26H28V12C28 11.4695 27.7893 10.9608 27.4142 10.5857C27.0391 10.2107 26.5304 9.99996 26 9.99996H18V3.99996C18.0002 3.63779 17.9021 3.28235 17.7161 2.97158C17.5301 2.66082 17.2633 2.40638 16.944 2.23544C16.6247 2.06451 16.265 1.98347 15.9032 2.001C15.5415 2.01853 15.1913 2.13395 14.89 2.33496L4.89 8.99996C4.61567 9.18298 4.39086 9.431 4.23558 9.72194C4.0803 10.0129 3.99937 10.3377 4 10.6675V26H2C1.73478 26 1.48043 26.1053 1.29289 26.2929C1.10536 26.4804 1 26.7347 1 27C1 27.2652 1.10536 27.5195 1.29289 27.7071C1.48043 27.8946 1.73478 28 2 28H30C30.2652 28 30.5196 27.8946 30.7071 27.7071C30.8946 27.5195 31 27.2652 31 27C31 26.7347 30.8946 26.4804 30.7071 26.2929C30.5196 26.1053 30.2652 26 30 26ZM26 12V26H18V12H26ZM6 10.6675L16 3.99996V26H6V10.6675ZM14 14V16C14 16.2652 13.8946 16.5195 13.7071 16.7071C13.5196 16.8946 13.2652 17 13 17C12.7348 17 12.4804 16.8946 12.2929 16.7071C12.1054 16.5195 12 16.2652 12 16V14C12 13.7347 12.1054 13.4804 12.2929 13.2929C12.4804 13.1053 12.7348 13 13 13C13.2652 13 13.5196 13.1053 13.7071 13.2929C13.8946 13.4804 14 13.7347 14 14ZM10 14V16C10 16.2652 9.89464 16.5195 9.70711 16.7071C9.51957 16.8946 9.26522 17 9 17C8.73478 17 8.48043 16.8946 8.29289 16.7071C8.10536 16.5195 8 16.2652 8 16V14C8 13.7347 8.10536 13.4804 8.29289 13.2929C8.48043 13.1053 8.73478 13 9 13C9.26522 13 9.51957 13.1053 9.70711 13.2929C9.89464 13.4804 10 13.7347 10 14ZM10 21V23C10 23.2652 9.89464 23.5195 9.70711 23.7071C9.51957 23.8946 9.26522 24 9 24C8.73478 24 8.48043 23.8946 8.29289 23.7071C8.10536 23.5195 8 23.2652 8 23V21C8 20.7347 8.10536 20.4804 8.29289 20.2929C8.48043 20.1053 8.73478 20 9 20C9.26522 20 9.51957 20.1053 9.70711 20.2929C9.89464 20.4804 10 20.7347 10 21ZM14 21V23C14 23.2652 13.8946 23.5195 13.7071 23.7071C13.5196 23.8946 13.2652 24 13 24C12.7348 24 12.4804 23.8946 12.2929 23.7071C12.1054 23.5195 12 23.2652 12 23V21C12 20.7347 12.1054 20.4804 12.2929 20.2929C12.4804 20.1053 12.7348 20 13 20C13.2652 20 13.5196 20.1053 13.7071 20.2929C13.8946 20.4804 14 20.7347 14 21Z" fill="#4D00FF"/>
</svg>