<?xml version="1.0" encoding="UTF-8"?>
<svg id="Layer_1" xmlns="http://www.w3.org/2000/svg" version="1.1" xmlns:xlink="http://www.w3.org/1999/xlink" viewBox="0 0 720 508">
  <!-- Generator: Adobe Illustrator 29.2.1, SVG Export Plug-In . SVG Version: 2.1.0 Build 116)  -->
  <defs>
    <style>
      .st0 {
        opacity: .8;
      }

      .st1, .st2 {
        fill: none;
      }

      .st2 {
        stroke: #353535;
      }

      .st3 {
        fill: #353535;
      }

      .st4 {
        clip-path: url(#clippath);
      }
    </style>
    <clipPath id="clippath">
      <rect class="st1" width="720" height="720"/>
    </clipPath>
  </defs>
  <g class="st4">
    <g class="st0">
      <line class="st2" x1=".5" y1="-238" x2=".5" y2="725"/>
      <line class="st2" x1="72.5" y1="-238" x2="72.5" y2="725"/>
      <line class="st2" x1="144.5" y1="-238" x2="144.5" y2="725"/>
      <line class="st2" x1="216.5" y1="-238" x2="216.5" y2="725"/>
      <line class="st2" x1="288.5" y1="-238" x2="288.5" y2="725"/>
      <line class="st2" x1="360.5" y1="-238" x2="360.5" y2="725"/>
      <line class="st2" x1="432.5" y1="-238" x2="432.5" y2="725"/>
      <line class="st2" x1="504.5" y1="-238" x2="504.5" y2="725"/>
      <line class="st2" x1="576.5" y1="-238" x2="576.5" y2="725"/>
      <line class="st2" x1="648.5" y1="-238" x2="648.5" y2="725"/>
      <line class="st2" x1="871" y1="36.5" x2="-92" y2="36.5"/>
      <line class="st2" x1="871" y1="108.5" x2="-92" y2="108.5"/>
      <line class="st2" x1="871" y1="180.5" x2="-92" y2="180.5"/>
      <line class="st2" x1="871" y1="252.5" x2="-92" y2="252.5"/>
      <line class="st2" x1="871" y1="324.5" x2="-92" y2="324.5"/>
      <line class="st2" x1="871" y1="396.5" x2="-92" y2="396.5"/>
      <line class="st2" x1="871" y1="468.5" x2="-92" y2="468.5"/>
      <circle class="st3" cx="360.5" cy="252.5" r="4.5"/>
      <circle class="st3" cx="216.5" cy="108.5" r="4.5"/>
      <circle class="st3" cx="144.5" cy="36.5" r="4.5"/>
      <circle class="st3" cx="504.5" cy="396.5" r="4.5"/>
      <circle class="st3" cx="288.5" cy="180.5" r="4.5"/>
      <circle class="st3" cx="576.5" cy="468.5" r="4.5"/>
      <circle class="st3" cx="432.5" cy="324.5" r="4.5"/>
      <circle class="st3" cx="216.5" cy="252.5" r="4.5"/>
      <circle class="st3" cx=".5" cy="36.5" r="4.5"/>
      <circle class="st3" cx="360.5" cy="396.5" r="4.5"/>
      <circle class="st3" cx="288.5" cy="324.5" r="4.5"/>
      <circle class="st3" cx="144.5" cy="180.5" r="4.5"/>
      <circle class="st3" cx="72.5" cy="108.5" r="4.5"/>
      <circle class="st3" cx="432.5" cy="468.5" r="4.5"/>
      <path class="st2" d="M216.5-35.5L.4,180.4"/>
      <line class="st2" x1="113.4" y1="-75.6" x2="-66.6" y2="104.4"/>
      <path class="st2" d="M299.6,480.4L1.5,181"/>
      <path class="st2" d="M288.2,36.5L72.4,252.4"/>
      <path class="st2" d="M432.5,180.5l-216.1,215.9"/>
      <path class="st2" d="M649.5-36.5l-73,73"/>
      <path class="st2" d="M722,467l-292,291.5"/>
      <path class="st2" d="M576.5,324.5l-216,215.5"/>
      <path class="st2" d="M648.5,396.5l-216,215.5"/>
      <path class="st2" d="M727.5,619.5L89.6-18"/>
      <path class="st2" d="M721,469L166.6-85"/>
      <path class="st2" d="M716.5,752.5L.5,36.5"/>
      <path class="st2" d="M720.5,36.5L19.5,737.5"/>
      <path class="st2" d="M592.5-123.5L-108.5,577.5"/>
      <path class="st2" d="M1056.5,276.5L355.5,977.5"/>
      <line class="st2" x1="561.6" y1="741.4" x2="299.6" y2="480.4"/>
      <path class="st2" d="M745.1,206.6L504-37"/>
      <path class="st2" d="M745.1,61.6l-241.1-243.6"/>
      <line class="st2" x1="272.6" y1="740.4" x2="-.4" y2="468.4"/>
      <circle class="st3" cx="720.5" cy="36.5" r="4.5"/>
    </g>
  </g>
</svg>