<svg xmlns="http://www.w3.org/2000/svg" width="40" height="40" viewBox="0 0 40 40" fill="none">
  <path d="M26.9578 7.6656C25.044 5.45496 22.8907 3.4636 20.5375 1.7281C20.3799 1.61785 20.1923 1.55872 20 1.55872C19.8077 1.55872 19.6201 1.61785 19.4625 1.7281C17.1093 3.4636 14.956 5.45496 13.0422 7.6656C8.80313 12.5406 6.5625 17.6703 6.5625 22.5C6.5625 26.0638 7.97823 29.4817 10.4983 32.0017C13.0183 34.5217 16.4362 35.9375 20 35.9375C23.5638 35.9375 26.9817 34.5217 29.5017 32.0017C32.0218 29.4817 33.4375 26.0638 33.4375 22.5C33.4375 17.6703 31.1969 12.5406 26.9578 7.6656ZM20 34.0625C16.9346 34.0588 13.9958 32.8394 11.8282 30.6718C9.6606 28.5042 8.44122 25.5654 8.4375 22.5C8.4375 13.1844 17.6562 5.47966 20 3.67029C22.3438 5.47966 31.5625 13.1844 31.5625 22.5C31.5588 25.5654 30.3394 28.5042 28.1718 30.6718C26.0042 32.8394 23.0654 34.0588 20 34.0625ZM28.425 23.9062C28.1124 25.6531 27.2721 27.2623 26.0172 28.5172C24.7623 29.7721 23.1532 30.6124 21.4062 30.925C21.3545 30.9329 21.3023 30.9371 21.25 30.9375C21.0143 30.9384 20.7869 30.8505 20.6131 30.6913C20.4392 30.5321 20.3318 30.3132 20.3121 30.0784C20.2924 29.8435 20.3619 29.6098 20.5067 29.4238C20.6516 29.2379 20.8612 29.1133 21.0938 29.075C23.8094 28.6187 26.1141 26.3125 26.575 23.5937C26.6164 23.3484 26.7536 23.1296 26.9564 22.9854C27.0568 22.914 27.1703 22.8631 27.2904 22.8356C27.4105 22.8081 27.5348 22.8045 27.6562 22.825C27.7777 22.8455 27.894 22.8897 27.9983 22.9552C28.1027 23.0206 28.1932 23.106 28.2646 23.2064C28.3359 23.3068 28.3869 23.4203 28.4144 23.5403C28.4419 23.6604 28.4455 23.7848 28.425 23.9062Z" fill="#B79CF6"/>
</svg>