<svg xmlns="http://www.w3.org/2000/svg" width="32" height="32" viewBox="0 0 32 32" fill="none">
  <path d="M31.4697 11.1175L16.4697 3.11746C16.325 3.04042 16.1636 3.00012 15.9997 3.00012C15.8358 3.00012 15.6744 3.04042 15.5297 3.11746L0.529688 11.1175C0.369693 11.2027 0.235888 11.3299 0.142587 11.4853C0.0492867 11.6408 0 11.8187 0 12C0 12.1813 0.0492867 12.3591 0.142587 12.5146C0.235888 12.67 0.369693 12.7972 0.529688 12.8825L3.99969 14.7337V20.7862C3.99865 21.2774 4.17942 21.7516 4.50719 22.1175C6.14469 23.9412 9.81344 27 15.9997 27C18.0509 27.0169 20.0867 26.6454 21.9997 25.905V30C21.9997 30.2652 22.105 30.5195 22.2926 30.7071C22.4801 30.8946 22.7345 31 22.9997 31C23.2649 31 23.5193 30.8946 23.7068 30.7071C23.8943 30.5195 23.9997 30.2652 23.9997 30V24.9387C25.3037 24.1859 26.4821 23.234 27.4922 22.1175C27.82 21.7516 28.0007 21.2774 27.9997 20.7862V14.7337L31.4697 12.8825C31.6297 12.7972 31.7635 12.67 31.8568 12.5146C31.9501 12.3591 31.9994 12.1813 31.9994 12C31.9994 11.8187 31.9501 11.6408 31.8568 11.4853C31.7635 11.3299 31.6297 11.2027 31.4697 11.1175ZM15.9997 25C10.5909 25 7.40969 22.3575 5.99969 20.7862V15.8L15.5297 20.8825C15.6744 20.9595 15.8358 20.9998 15.9997 20.9998C16.1636 20.9998 16.325 20.9595 16.4697 20.8825L21.9997 17.9337V23.7262C20.4247 24.4612 18.4397 25 15.9997 25ZM25.9997 20.7812C25.4002 21.4464 24.7296 22.0437 23.9997 22.5625V16.8662L25.9997 15.8V20.7812ZM23.4997 14.8675L23.4722 14.8512L16.4722 11.1175C16.2386 10.9982 15.9676 10.9754 15.7174 11.054C15.4672 11.1327 15.258 11.3065 15.1347 11.5379C15.0114 11.7694 14.984 12.04 15.0583 12.2915C15.1327 12.543 15.3029 12.7552 15.5322 12.8825L21.3747 16L15.9997 18.8662L3.12469 12L15.9997 5.13371L28.8747 12L23.4997 14.8675Z" fill="#4D00FF"/>
</svg>