<svg xmlns="http://www.w3.org/2000/svg" width="40" height="40" viewBox="0 0 40 40" fill="none">
  <path d="M34.2516 25.0375C34.1179 24.9529 33.965 24.9036 33.807 24.894C33.6491 24.8844 33.4914 24.915 33.3484 24.9828C32.8923 25.1983 32.3944 25.3107 31.89 25.3121C31.3856 25.3136 30.887 25.204 30.4297 24.9911C29.9724 24.7783 29.5675 24.4674 29.2438 24.0805C28.9201 23.6937 28.6855 23.2403 28.5567 22.7526C28.4279 22.2649 28.4079 21.7548 28.4983 21.2586C28.5888 20.7623 28.7873 20.292 29.0798 19.8811C29.3723 19.4702 29.7517 19.1287 30.1911 18.8808C30.6304 18.6329 31.1189 18.4848 31.6219 18.4469C32.2155 18.4039 32.8102 18.5148 33.3484 18.7687C33.4913 18.8365 33.649 18.867 33.8068 18.8574C33.9646 18.8478 34.1175 18.7985 34.2511 18.7139C34.3847 18.6294 34.4948 18.5125 34.5711 18.374C34.6474 18.2355 34.6875 18.08 34.6875 17.9219V11.25C34.6875 10.6698 34.457 10.1134 34.0468 9.7032C33.6366 9.29297 33.0802 9.0625 32.5 9.0625H26.4813C26.5352 8.75291 26.5624 8.43925 26.5625 8.125C26.5614 7.39947 26.4121 6.68182 26.1238 6.01603C25.8355 5.35025 25.4143 4.75035 24.8859 4.25312C24.3581 3.75264 23.7322 3.36716 23.0477 3.12106C22.3632 2.87497 21.6351 2.77362 20.9094 2.82344C20.1627 2.87155 19.4346 3.07685 18.7728 3.42588C18.111 3.77492 17.5303 4.25982 17.0689 4.84883C16.6075 5.43784 16.2757 6.11767 16.0953 6.84381C15.9148 7.56995 15.8898 8.32602 16.0219 9.0625H10C9.41984 9.0625 8.86345 9.29297 8.45321 9.7032C8.04297 10.1134 7.81251 10.6698 7.81251 11.25V16.6453C6.94131 16.4892 6.04491 16.5532 5.20474 16.8315C4.36456 17.1098 3.60724 17.5937 3.00157 18.2391C2.31478 18.9707 1.84924 19.8818 1.65883 20.867C1.46843 21.8523 1.56095 22.8713 1.92569 23.8061C2.29043 24.7409 2.91247 25.5533 3.7198 26.1492C4.52712 26.7452 5.48672 27.1003 6.48751 27.1734C6.93032 27.2054 7.37538 27.1823 7.81251 27.1047V32.5C7.81251 33.0802 8.04297 33.6366 8.45321 34.0468C8.86345 34.457 9.41984 34.6875 10 34.6875H32.5C33.0802 34.6875 33.6366 34.457 34.0468 34.0468C34.457 33.6366 34.6875 33.0802 34.6875 32.5V25.8297C34.6875 25.6716 34.6476 25.5161 34.5714 25.3776C34.4951 25.2391 34.3851 25.1221 34.2516 25.0375ZM32.8125 32.5C32.8125 32.5829 32.7796 32.6624 32.721 32.721C32.6624 32.7796 32.5829 32.8125 32.5 32.8125H10C9.91713 32.8125 9.83764 32.7796 9.77903 32.721C9.72043 32.6624 9.68751 32.5829 9.68751 32.5V25.8297C9.68751 25.581 9.58873 25.3426 9.41292 25.1668C9.2371 24.991 8.99865 24.8922 8.75001 24.8922C8.61104 24.8918 8.47379 24.9228 8.34844 24.9828C7.84145 25.2232 7.28332 25.3358 6.72278 25.3109C6.16224 25.2859 5.61632 25.1241 5.1327 24.8396C4.64908 24.5551 4.24245 24.1566 3.94832 23.6788C3.65419 23.2009 3.4815 22.6584 3.44532 22.0984C3.40634 21.5009 3.52415 20.9035 3.78708 20.3654C4.05001 19.8274 4.44894 19.3674 4.94435 19.0309C5.43976 18.6945 6.01447 18.4933 6.61154 18.4474C7.20862 18.4014 7.80736 18.5122 8.34844 18.7687C8.49132 18.8365 8.649 18.867 8.80682 18.8574C8.96464 18.8478 9.11748 18.7985 9.25111 18.7139C9.38474 18.6294 9.49483 18.5125 9.57113 18.374C9.64743 18.2355 9.68746 18.08 9.68751 17.9219V11.25C9.68751 11.1671 9.72043 11.0876 9.77903 11.029C9.83764 10.9704 9.91713 10.9375 10 10.9375H17.2953C17.4534 10.9375 17.609 10.8974 17.7474 10.8211C17.8859 10.7448 18.0029 10.6347 18.0874 10.5011C18.1719 10.3675 18.2212 10.2146 18.2308 10.0568C18.2404 9.89899 18.2099 9.74131 18.1422 9.59844C17.8934 9.06146 17.7859 8.46986 17.8297 7.87969C17.8663 7.37613 18.0133 6.88681 18.2604 6.44651C18.5075 6.00621 18.8485 5.62575 19.2593 5.33216C19.67 5.03857 20.1404 4.83907 20.637 4.74783C21.1335 4.65659 21.6441 4.67586 22.1324 4.80426C22.6207 4.93266 23.0747 5.16705 23.4621 5.49076C23.8496 5.81447 24.161 6.21956 24.3742 6.67722C24.5874 7.13489 24.6971 7.6339 24.6956 8.13878C24.6942 8.64366 24.5815 9.14202 24.3656 9.59844C24.2982 9.7406 24.2677 9.89743 24.2768 10.0545C24.286 10.2116 24.3345 10.3638 24.4179 10.4972C24.5013 10.6306 24.617 10.7408 24.7542 10.8178C24.8914 10.8947 25.0458 10.9359 25.2031 10.9375H32.5C32.5829 10.9375 32.6624 10.9704 32.721 11.029C32.7796 11.0876 32.8125 11.1671 32.8125 11.25V16.6469C32.076 16.5148 31.32 16.5398 30.5938 16.7203C29.8677 16.9007 29.1878 17.2325 28.5988 17.6939C28.0098 18.1553 27.5249 18.736 27.1759 19.3978C26.8269 20.0596 26.6216 20.7877 26.5734 21.5344C26.5241 22.2599 26.6255 22.9877 26.8713 23.6721C27.1171 24.3565 27.5019 24.9826 28.0016 25.5109C28.6083 26.1549 29.3657 26.6378 30.2055 26.9163C31.0453 27.1948 31.9412 27.26 32.8125 27.1062V32.5Z" fill="#B79CF6"/>
</svg>