<svg xmlns="http://www.w3.org/2000/svg" width="40" height="40" viewBox="0 0 40 40" fill="none">
  <path d="M34.6656 7.38127C34.6324 6.84904 34.4058 6.34729 34.0286 5.97035C33.6514 5.59342 33.1494 5.36726 32.6172 5.3344C30.6937 5.22033 25.7781 5.39533 21.6984 9.47502L20.8625 10.3125H11.6172C11.33 10.3118 11.0456 10.3681 10.7804 10.4781C10.5151 10.588 10.2743 10.7495 10.0719 10.9531L4.70468 16.3188C4.41731 16.6062 4.21571 16.9681 4.1225 17.3637C4.02929 17.7594 4.04816 18.1731 4.17699 18.5587C4.30582 18.9442 4.53951 19.2862 4.85186 19.5463C5.1642 19.8064 5.54284 19.9743 5.94531 20.0313L12.0594 20.8844L19.1156 27.9406L19.9687 34.0625C20.0262 34.4647 20.1945 34.843 20.4548 35.1549C20.7151 35.4669 21.0571 35.7002 21.4425 35.8286C21.828 35.9571 22.2416 35.9757 22.637 35.8823C23.0324 35.789 23.394 35.5873 23.6812 35.3L29.0484 29.9328C29.252 29.7303 29.4134 29.4895 29.5234 29.2243C29.6333 28.959 29.6896 28.6746 29.6891 28.3875V19.1375L30.525 18.3016C34.6031 14.2188 34.7797 9.30627 34.6656 7.38127ZM5.95468 17.9688C5.93791 17.9146 5.93617 17.857 5.94966 17.8019C5.96314 17.7469 5.99134 17.6965 6.03124 17.6563L11.3969 12.2781C11.4555 12.22 11.5347 12.1875 11.6172 12.1875H18.9875L12.1672 19.0063L6.20781 18.175C6.15027 18.1686 6.0958 18.1457 6.05092 18.1091C6.00603 18.0725 5.97262 18.0238 5.95468 17.9688ZM27.8125 28.3828C27.8121 28.4656 27.779 28.5448 27.7203 28.6031L22.3562 33.9688C22.3155 34.01 22.264 34.0391 22.2076 34.0527C22.1513 34.0664 22.0922 34.0641 22.0371 34.0461C21.9819 34.0281 21.9329 33.9951 21.8954 33.9508C21.858 33.9065 21.8336 33.8527 21.825 33.7953L20.9937 27.8328L27.8125 21.0125V28.3828ZM29.1984 16.9766L20 26.1735L13.8266 20L23.025 10.8C24.2578 9.55927 25.7419 8.59666 27.3774 7.97681C29.013 7.35697 30.7623 7.09424 32.5078 7.20627C32.5829 7.21255 32.6531 7.24574 32.7057 7.29971C32.7582 7.35368 32.7895 7.42482 32.7937 7.50002C32.9046 9.24424 32.6414 10.992 32.0215 12.6262C31.4017 14.2603 30.4397 15.7431 29.2 16.975L29.1984 16.9766ZM15.625 29.736C14.95 31.225 12.6766 34.6875 6.24999 34.6875C6.00135 34.6875 5.7629 34.5888 5.58708 34.4129C5.41127 34.2371 5.31249 33.9987 5.31249 33.75C5.31249 27.3235 8.775 25.05 10.2641 24.375C10.3761 24.3237 10.4971 24.295 10.6203 24.2905C10.7434 24.286 10.8662 24.3057 10.9817 24.3487C11.0972 24.3916 11.2031 24.4569 11.2934 24.5408C11.3836 24.6247 11.4565 24.7255 11.5078 24.8375C11.5591 24.9496 11.5878 25.0706 11.5924 25.1937C11.5969 25.3169 11.5771 25.4397 11.5341 25.5552C11.4912 25.6707 11.4259 25.7766 11.342 25.8668C11.2582 25.9571 11.1573 26.03 11.0453 26.0813C9.95156 26.5766 7.52499 28.1938 7.22187 32.786C11.8141 32.4828 13.4312 30.0485 13.9266 28.9625C13.9779 28.8505 14.0507 28.7497 14.141 28.6658C14.2312 28.5819 14.3372 28.5166 14.4526 28.4737C14.5681 28.4307 14.691 28.411 14.8141 28.4155C14.9372 28.42 15.0583 28.4487 15.1703 28.5C15.2823 28.5513 15.3832 28.6242 15.467 28.7144C15.5509 28.8047 15.6162 28.9106 15.6591 29.0261C15.7021 29.1416 15.7219 29.2644 15.7174 29.3876C15.7128 29.5107 15.6841 29.6317 15.6328 29.7438L15.625 29.736Z" fill="#B79CF6"/>
</svg>